#!OML:ASF F:\VICON\USERDATA\INSTALL\rory3\rory3.ASF
:FULLY-SPECIFIED
:DEGREES
449
root -0.0223132 18.0171 -0.994993 2.64089 -11.5643 1.14481
lowerback -0.97686 -2.30229 -2.88792
upperback 0.0289548 -3.05085 1.83143
thorax 0.827863 -1.54335 3.44208
lowerneck -27.976 -1.73732 -8.82431
upperneck 24.6777 0.49266 2.85009
head 12.8721 -0.245835 2.65836
rclavicle -3.48619e-014 1.47101e-014
rhumerus -31.9325 -3.88492 -82.9673
rradius 31.6937
rwrist 19.9054
rhand -18.0822 8.56683
rfingers 7.12502
rthumb 8.19099 -21.2544
lclavicle -3.48619e-014 1.47101e-014
lhumerus -23.732 -6.95853 91.7126
lradius 70.9751
lwrist 0.84017
lhand -29.669 22.2812
lfingers 7.12502
lthumb -2.99783 52.2398
rfemur -8.87185 9.66223 14.9338
rtibia 24.1662
rfoot -15.1333 -3.31543
rtoes 4.90533
lfemur 0.412459 -2.15502 -21.7232
ltibia 10.9251
lfoot -9.57569 7.23193
ltoes -11.3957
450
root -0.0251513 18.0176 -1.00173 2.59513 -11.5121 1.09652
lowerback -0.882022 -2.3172 -2.94118
upperback 0.0514439 -3.07285 1.88
thorax 0.805134 -1.55478 3.52508
lowerneck -28.0258 -1.72701 -8.81497
upperneck 24.7137 0.516076 2.82723
head 12.8948 -0.239057 2.6533
rclavicle 7.03201e-015 -1.03368e-014
rhumerus -31.8192 -3.70127 -82.9748
rradius 31.6484
rwrist 19.8189
rhand -18.0558 8.54278
rfingers 7.12502
rthumb 8.21648 -21.2775
lclavicle 7.03201e-015 -1.03368e-014
lhumerus -23.5632 -6.93142 91.6894
lradius 71.0152
lwrist 0.644605
lhand -29.537 22.0629
lfingers 7.12502
lthumb -2.87032 52.0233
rfemur -8.80297 9.734 15.0257
rtibia 24.1385
rfoot -15.1463 -3.42
rtoes 4.83543
lfemur 0.425629 -2.07918 -21.6317
ltibia 10.932
lfoot -9.5629 7.10177
ltoes -11.5992
451
root -0.0280184 18.0166 -1.00918 2.57209 -11.5042 1.09531
lowerback -0.854986 -2.31227 -3.02297
upperback 0.0730315 -3.06616 1.89058
thorax 0.816513 -1.55241 3.58271
lowerneck -28.0143 -1.70915 -8.74737
upperneck 24.7252 0.532399 2.75722
head 12.8967 -0.23587 2.61783
rclavicle -7.85199e-015 -8.74653e-015
rhumerus -31.716 -3.60839 -82.9955
rradius 31.5753
rwrist 19.7818
rhand -17.987 8.54534
rfingers 7.12502
rthumb 8.28292 -21.2723
lclavicle -7.85199e-015 -8.74653e-015
lhumerus -23.432 -6.94741 91.6626
lradius 71.069
lwrist 0.426595
lhand -29.4256 22.0196
lfingers 7.12502
lthumb -2.76272 51.9815
rfemur -8.79326 9.79902 15.043
rtibia 24.109
rfoot -15.1566 -3.44506
rtoes 5.15896
lfemur 0.377964 -2.07874 -21.6112
ltibia 10.9672
lfoot -9.51738 7.08807
ltoes -11.6529
452
root -0.02904 18.0164 -1.01208 2.56022 -11.531 1.10338
lowerback -0.89717 -2.29948 -3.04451
upperback 0.0739442 -3.04761 1.86737
thorax 0.839366 -1.54354 3.56945
lowerneck -27.8393 -1.67222 -8.67997
upperneck 24.6459 0.5489 2.71432
head 12.8302 -0.225979 2.59009
rclavicle 5.42185e-014 -1.11319e-014
rhumerus -31.6958 -3.68212 -82.9981
rradius 31.5516
rwrist 19.9288
rhand -17.8997 8.35271
rfingers 7.12502
rthumb 8.36714 -21.4616
lclavicle 5.42185e-014 -1.11319e-014
lhumerus -23.3538 -7.09941 91.6345
lradius 71.0679
lwrist 0.176617
lhand -29.5435 22.117
lfingers 7.12502
lthumb -2.87663 52.0773
rfemur -8.79658 9.83885 15.0348
rtibia 24.082
rfoot -15.1331 -3.43803
rtoes 5.41745
lfemur 0.327938 -2.11245 -21.6222
ltibia 11.0149
lfoot -9.53601 7.14714
ltoes -11.5247
453
root -0.0306204 18.0179 -1.01336 2.53802 -11.5517 1.08309
lowerback -0.928508 -2.28293 -3.04138
upperback 0.085837 -3.02478 1.86837
thorax 0.867094 -1.5328 3.56763
lowerneck -27.6681 -1.64439 -8.7427
upperneck 24.5454 0.578494 2.77155
head 12.7542 -0.207804 2.62496
rclavicle 3.07619e-014 -1.59028e-014
rhumerus -31.6556 -3.7286 -82.9647
rradius 31.5553
rwrist 19.9644
rhand -17.8568 8.26999
rfingers 7.12502
rthumb 8.40852 -21.5426
lclavicle 3.07619e-014 -1.59028e-014
lhumerus -23.2289 -7.21672 91.6309
lradius 71.0181
lwrist -0.134102
lhand -29.6397 22.1297
lfingers 7.12502
lthumb -2.96949 52.0887
rfemur -8.76522 9.90519 15.0658
rtibia 24.0557
rfoot -15.1271 -3.47887
rtoes 5.54749
lfemur 0.36373 -2.11155 -21.5922
ltibia 11.0599
lfoot -9.62637 7.1611
ltoes -11.4114
454
root -0.0314737 18.0192 -1.01865 2.50139 -11.47 1.02692
lowerback -0.854845 -2.28575 -3.00235
upperback 0.084415 -3.03077 1.8686
thorax 0.822828 -1.53479 3.54903
lowerneck -27.5664 -1.63745 -8.81831
upperneck 24.5401 0.570281 2.89984
head 12.7318 -0.200116 2.6853
rclavicle 2.81777e-014 -2.3059e-014
rhumerus -31.6281 -3.81613 -82.94
rradius 31.5315
rwrist 20.0127
rhand -17.9376 8.48392
rfingers 7.12502
rthumb 8.33052 -21.3318
lclavicle 2.81777e-014 -2.3059e-014
lhumerus -23.1085 -7.30147 91.5959
lradius 70.966
lwrist -0.397959
lhand -29.5383 22.0435
lfingers 7.12502
lthumb -2.87162 52.0039
rfemur -8.71158 9.86654 15.1441
rtibia 24.0381
rfoot -15.1011 -3.51953
rtoes 5.26505
lfemur 0.415593 -2.08957 -21.5092
ltibia 11.0801
lfoot -9.62277 7.06231
ltoes -11.3359
455
root -0.0314715 18.0179 -1.02064 2.45794 -11.4091 1.05876
lowerback -0.889942 -2.26409 -3.00248
upperback 0.124378 -3.00033 1.80268
thorax 0.877404 -1.52084 3.47933
lowerneck -27.5705 -1.65328 -8.74855
upperneck 24.5891 0.512343 2.91987
head 12.756 -0.217351 2.67225
rclavicle -4.35587e-014 -3.57812e-015
rhumerus -31.5865 -3.99074 -82.9456
rradius 31.5074
rwrist 20.0311
rhand -18.0698 8.75053
rfingers 7.12502
rthumb 8.20294 -21.0702
lclavicle -4.35587e-014 -3.57812e-015
lhumerus -22.9582 -7.48204 91.5476
lradius 70.9392
lwrist -0.52864
lhand -29.5698 21.8793
lfingers 7.12502
lthumb -2.90204 51.8393
rfemur -8.65526 9.8078 15.1164
rtibia 24.0304
rfoot -15.0951 -3.52453
rtoes 4.8901
lfemur 0.436443 -2.05102 -21.5373
ltibia 11.1063
lfoot -9.65532 6.95299
ltoes -11.3842
456
root -0.0310185 18.0174 -1.01995 2.42273 -11.4289 1.12532
lowerback -0.997612 -2.22644 -3.03312
upperback 0.182019 -2.94623 1.73398
thorax 0.990355 -1.4965 3.42107
lowerneck -27.5502 -1.65942 -8.6538
upperneck 24.5511 0.47043 2.88729
head 12.7397 -0.230037 2.63532
rclavicle -2.14439e-014 1.15295e-014
rhumerus -31.4965 -4.27077 -82.9123
rradius 31.4694
rwrist 20.1962
rhand -17.9052 8.87443
rfingers 7.12502
rthumb 8.36179 -20.9401
lclavicle -2.14439e-014 1.15295e-014
lhumerus -22.7637 -7.58941 91.49
lradius 70.8969
lwrist -0.596142
lhand -29.6047 21.9442
lfingers 7.12502
lthumb -2.93568 51.9037
rfemur -8.62752 9.78275 15.0418
rtibia 24.0457
rfoot -15.0928 -3.47336
rtoes 4.84369
lfemur 0.480638 -2.02695 -21.6218
ltibia 11.0816
lfoot -9.65509 6.9526
ltoes -11.544
457
root -0.0318583 18.0166 -1.02439 2.4147 -11.422 1.188
lowerback -0.982553 -2.23956 -3.12694
upperback 0.160048 -2.96291 1.72588
thorax 0.965102 -1.50455 3.46614
lowerneck -27.5151 -1.64042 -8.67802
upperneck 24.5525 0.508853 2.87162
head 12.7312 -0.217912 2.63995
rclavicle -1.09332e-014 2.22639e-014
rhumerus -31.4833 -4.3177 -82.8671
rradius 31.4925
rwrist 20.3348
rhand -17.5999 8.94129
rfingers 7.12502
rthumb 8.65645 -20.8612
lclavicle -1.09332e-014 2.22639e-014
lhumerus -22.6567 -7.53871 91.4426
lradius 70.883
lwrist -0.652814
lhand -29.5803 22.2445
lfingers 7.12502
lthumb -2.91218 52.2044
rfemur -8.65745 9.79533 14.9748
rtibia 24.0763
rfoot -15.1379 -3.46439
rtoes 5.17309
lfemur 0.49552 -1.97762 -21.6797
ltibia 11.006
lfoot -9.54962 6.92176
ltoes -11.5899
458
root -0.0322886 18.0162 -1.02728 2.38405 -11.4204 1.25765
lowerback -0.912137 -2.25082 -3.22865
upperback 0.104159 -2.97879 1.72239
thorax 0.874602 -1.51044 3.52364
lowerneck -27.5055 -1.61934 -8.68043
upperneck 24.6662 0.558943 2.80843
head 12.7726 -0.208963 2.6271
rclavicle 5.17089e-014 3.57812e-015
rhumerus -31.5341 -4.27031 -82.8416
rradius 31.5162
rwrist 20.3543
rhand -17.4735 8.98514
rfingers 7.12502
rthumb 8.77843 -20.8123
lclavicle 5.17089e-014 3.57812e-015
lhumerus -22.6416 -7.455 91.4203
lradius 70.8316
lwrist -0.801795
lhand -29.6054 22.237
lfingers 7.12502
lthumb -2.93634 52.1966
rfemur -8.66557 9.75679 14.9031
rtibia 24.1128
rfoot -15.159 -3.44765
rtoes 5.39641
lfemur 0.553469 -1.9619 -21.7453
ltibia 10.9079
lfoot -9.44637 6.89229
ltoes -11.5334
459
root -0.032994 18.0158 -1.02704 2.37225 -11.4596 1.26509
lowerback -0.938256 -2.23257 -3.2503
upperback 0.0720131 -2.95347 1.71314
thorax 0.854656 -1.49693 3.52661
lowerneck -27.3653 -1.57687 -8.523
upperneck 24.6817 0.587685 2.64231
head 12.7515 -0.205734 2.54076
rclavicle -1.32192e-014 1.03368e-014
rhumerus -31.543 -4.35535 -82.806
rradius 31.4701
rwrist 20.402
rhand -17.3403 9.03454
rfingers 7.12502
rthumb 8.90699 -20.7575
lclavicle -1.32192e-014 1.03368e-014
lhumerus -22.5794 -7.42502 91.4018
lradius 70.7127
lwrist -0.930456
lhand -29.5816 22.058
lfingers 7.12502
lthumb -2.91342 52.0179
rfemur -8.68286 9.78499 14.8982
rtibia 24.1573
rfoot -15.1402 -3.43487
rtoes 5.3309
lfemur 0.617605 -1.96255 -21.7589
ltibia 10.81
lfoot -9.40084 6.93987
ltoes -11.7594
460
root -0.0330247 18.0157 -1.02819 2.36801 -11.4511 1.28471
lowerback -0.927107 -2.24903 -3.29684
upperback 0.0193269 -2.9755 1.72011
thorax 0.798932 -1.50627 3.56118
lowerneck -27.2622 -1.51054 -8.40185
upperneck 24.7197 0.666322 2.48949
head 12.7433 -0.182792 2.47551
rclavicle 2.44505e-014 -3.57812e-015
rhumerus -31.5998 -4.29511 -82.7926
rradius 31.4695
rwrist 20.3861
rhand -17.3646 8.91214
rfingers 7.12502
rthumb 8.88349 -20.8809
lclavicle 2.44505e-014 -3.57812e-015
lhumerus -22.6045 -7.37162 91.3997
lradius 70.6857
lwrist -0.934949
lhand -29.6462 21.9875
lfingers 7.12502
lthumb -2.97579 51.9465
rfemur -8.70264 9.80771 14.876
rtibia 24.2039
rfoot -15.1522 -3.43949
rtoes 5.18002
lfemur 0.650628 -2.01095 -21.7848
ltibia 10.7264
lfoot -9.36521 6.99233
ltoes -11.7894
461
root -0.0299531 18.0171 -1.02895 2.50303 -11.5891 1.31385
lowerback -1.05371 -2.22603 -3.2822
upperback -0.0607034 -2.94167 1.72024
thorax 0.783988 -1.48766 3.55062
lowerneck -27.268 -1.47707 -8.5093
upperneck 24.823 0.737267 2.56759
head 12.7807 -0.154143 2.53882
rclavicle -2.95692e-015 -7.95139e-016
rhumerus -31.6273 -4.2095 -82.7874
rradius 31.4789
rwrist 20.3265
rhand -17.3617 8.61393
rfingers 7.12502
rthumb 8.8863 -21.179
lclavicle -2.95692e-015 -7.95139e-016
lhumerus -22.6177 -7.31306 91.4048
lradius 70.663
lwrist -0.957099
lhand -29.7953 22.0613
lfingers 7.12502
lthumb -3.11975 52.0182
rfemur -8.91663 9.80837 14.7731
rtibia 24.2302
rfoot -15.109 -3.30186
rtoes 5.23618
lfemur 0.477961 -2.00656 -21.8553
ltibia 10.7108
lfoot -9.34328 7.15616
ltoes -11.5938
462
root -0.0249978 18.0183 -1.03211 2.72777 -11.9366 1.2999
lowerback -1.27105 -2.11193 -3.19806
upperback -0.13132 -2.78465 1.71749
thorax 0.815503 -1.40816 3.49756
lowerneck -27.248 -1.44149 -8.50989
upperneck 24.8626 0.790153 2.55518
head 12.7895 -0.134038 2.54441
rclavicle 4.22417e-015 -3.97569e-016
rhumerus -31.5937 -4.21339 -82.764
rradius 31.4463
rwrist 20.3144
rhand -17.4449 8.47705
rfingers 7.12502
rthumb 8.80601 -21.3192
lclavicle 4.22417e-015 -3.97569e-016
lhumerus -22.5379 -7.27671 91.4198
lradius 70.6453
lwrist -0.892491
lhand -29.8408 22.1741
lfingers 7.12502
lthumb -3.16368 52.1304
rfemur -9.29198 9.82792 14.6747
rtibia 24.2478
rfoot -14.9348 -3.05227
rtoes 5.31082
lfemur 0.229116 -1.95738 -21.8988
ltibia 10.7018
lfoot -9.31067 7.45295
ltoes -11.1079
